<svg width="9" height="10" viewBox="0 0 9 10" fill="none" xmlns="http://www.w3.org/2000/svg">
<path d="M4.69408 9.80534C3.67408 9.84744 2.66208 9.60214 1.77308 9.09674C1.41708 8.88074 1.11308 8.58664 0.885078 8.23654C0.657078 7.88634 0.510078 7.48894 0.455078 7.07384C0.455078 6.84534 0.53508 6.73104 0.78508 6.73104H2.45508C2.53508 6.73424 2.61208 6.75924 2.67808 6.80374C2.74408 6.84804 2.79708 6.90984 2.83008 6.98244C3.06908 7.59964 3.69408 7.90814 4.69408 7.90814C5.04308 7.92424 5.39008 7.85354 5.70508 7.70244C5.81408 7.65304 5.90707 7.57494 5.97507 7.47624C6.04307 7.37764 6.08308 7.26224 6.09108 7.14244C6.09108 6.84534 5.91007 6.63964 5.54607 6.50244C5.11507 6.35814 4.66908 6.26224 4.21608 6.21674C3.68108 6.15574 3.14908 6.06024 2.62608 5.93104C2.11608 5.81514 1.65307 5.54844 1.29607 5.16534C1.08607 4.90494 0.93108 4.60384 0.84108 4.28074C0.75108 3.95764 0.729078 3.61934 0.775078 3.28714C0.821078 2.95484 0.934078 2.63544 1.10808 2.34924C1.28108 2.06284 1.51208 1.81544 1.78508 1.62244C2.60408 1.09774 3.56508 0.84214 4.53508 0.89104C5.47408 0.85914 6.40308 1.09274 7.21608 1.56534C7.54408 1.75214 7.82708 2.01014 8.04308 2.32054C8.25908 2.63094 8.40408 2.98584 8.46608 3.35964C8.46608 3.58814 8.36408 3.70244 8.16008 3.70244H6.47807C6.40707 3.70664 6.33708 3.68934 6.27608 3.65264C6.21508 3.61594 6.16708 3.56154 6.13708 3.49674C6.02508 3.22614 5.81307 3.00924 5.54607 2.89104C5.24507 2.73264 4.90808 2.65384 4.56908 2.66244C4.23608 2.64424 3.90307 2.71114 3.60307 2.85674C3.49707 2.89784 3.40608 2.96984 3.34108 3.06364C3.27608 3.15734 3.24107 3.26844 3.23907 3.38244C3.24607 3.53884 3.30308 3.68864 3.40208 3.81004C3.50008 3.93134 3.63408 4.01774 3.78508 4.05674C4.22108 4.22224 4.67508 4.33724 5.13708 4.39964C5.66808 4.47004 6.19608 4.56924 6.71608 4.69674C7.22608 4.81274 7.68907 5.07934 8.04607 5.46244C8.23707 5.67354 8.38508 5.92054 8.48008 6.18934C8.57608 6.45804 8.61707 6.74314 8.60307 7.02814C8.61307 7.42324 8.52008 7.81414 8.33508 8.16264C8.15008 8.51114 7.87807 8.80544 7.54607 9.01674C6.69707 9.56494 5.70208 9.83994 4.69408 9.80534Z" fill="#010032"/>
</svg>
