<svg width="5" height="14" viewBox="0 0 5 14" fill="none" xmlns="http://www.w3.org/2000/svg">
<path d="M2.98842 3.26814C2.68812 3.53264 2.30241 3.67834 1.90321 3.67834C1.50401 3.67834 1.11842 3.53264 0.818016 3.26814C0.681816 3.13894 0.573315 2.98304 0.499115 2.81014C0.425015 2.63724 0.386719 2.45084 0.386719 2.26244C0.386719 2.07414 0.425015 1.88784 0.499115 1.71484C0.573315 1.54184 0.681816 1.38604 0.818016 1.25674C1.12152 0.998943 1.50591 0.857544 1.90321 0.857544C2.30051 0.857544 2.68492 0.998943 2.98842 1.25674C3.12472 1.38604 3.23321 1.54184 3.30731 1.71484C3.38151 1.88784 3.41972 2.07414 3.41972 2.26244C3.41972 2.45084 3.38151 2.63724 3.30731 2.81014C3.23321 2.98304 3.12472 3.13894 2.98842 3.26814ZM3.22711 13.8053C2.55161 13.8386 1.88422 13.6457 1.32932 13.2567C1.10172 13.0818 0.918917 12.8546 0.796417 12.5942C0.673817 12.3337 0.614917 12.0476 0.624817 11.7596V5.54244C0.619317 5.49764 0.624018 5.45204 0.638718 5.40934C0.653218 5.36654 0.677314 5.32784 0.709114 5.29584C0.740914 5.26384 0.779514 5.23964 0.822014 5.22494C0.864514 5.21024 0.909815 5.20554 0.954315 5.21104H2.86342C3.07932 5.21104 3.18162 5.32534 3.18162 5.54244V10.9367C3.18162 11.371 3.37482 11.5881 3.76122 11.5881C3.93352 11.5944 4.10581 11.5751 4.27251 11.531C4.49981 11.531 4.62481 11.5996 4.63622 11.8053L4.80662 13.2338C4.81482 13.2756 4.81401 13.3184 4.80431 13.3598C4.79471 13.401 4.77631 13.4399 4.75041 13.4734C4.72461 13.507 4.69182 13.5346 4.65462 13.5544C4.61722 13.5742 4.57601 13.5857 4.53391 13.5881C4.11211 13.7279 3.67131 13.8012 3.22711 13.8053Z" fill="#010032"/>
</svg>
