<svg width="10" height="10" viewBox="0 0 10 10" fill="none" xmlns="http://www.w3.org/2000/svg">
<path d="M8.6028 8.58245C7.6417 9.37545 6.4369 9.80885 5.1937 9.80885C3.9506 9.80885 2.7458 9.37545 1.7847 8.58245C0.960198 7.71665 0.5 6.56415 0.5 5.36535C0.5 4.16655 0.960198 3.01405 1.7847 2.14815C2.7467 1.35725 3.9511 0.925049 5.1937 0.925049C6.4364 0.925049 7.6408 1.35725 8.6028 2.14815C9.4266 3.01205 9.8865 4.16265 9.8865 5.35965C9.8865 6.55655 9.4266 7.70715 8.6028 8.57105V8.58245ZM3.5687 7.07385C3.7866 7.28235 4.0434 7.44525 4.3243 7.55305C4.6052 7.66095 4.9045 7.71185 5.2051 7.70245C5.5038 7.71025 5.801 7.65885 6.0799 7.55095C6.3587 7.44305 6.6136 7.28095 6.8301 7.07385C7.2265 6.60485 7.4441 6.00945 7.4441 5.39385C7.4441 4.77835 7.2265 4.18295 6.8301 3.71385C6.6136 3.50695 6.3587 3.34475 6.0799 3.23695C5.801 3.12905 5.5038 3.07755 5.2051 3.08535C4.9045 3.07605 4.6052 3.12685 4.3243 3.23465C4.0434 3.34255 3.7866 3.50555 3.5687 3.71385C3.1725 4.18295 2.9549 4.77835 2.9549 5.39385C2.9549 6.00945 3.1725 6.60485 3.5687 7.07385Z" fill="#010032"/>
</svg>
