<svg width="18" height="10" viewBox="0 0 18 10" fill="none" xmlns="http://www.w3.org/2000/svg">
<path d="M17.67 9.23384C17.68 9.27484 17.682 9.31754 17.674 9.35894C17.665 9.40014 17.648 9.43924 17.623 9.47304C17.598 9.50694 17.566 9.53484 17.528 9.55464C17.492 9.57465 17.451 9.58614 17.409 9.58814C16.986 9.72634 16.546 9.79964 16.102 9.80534C15.426 9.84044 14.759 9.64734 14.204 9.25674C13.965 9.08944 13.77 8.86534 13.637 8.60414C13.504 8.34304 13.437 8.05284 13.443 7.75964V5.07384C13.467 4.56144 13.296 4.05894 12.966 3.66814C12.807 3.48954 12.609 3.34874 12.39 3.25584C12.169 3.16304 11.932 3.12044 11.693 3.13104C11.478 3.12294 11.265 3.16394 11.067 3.25104C10.87 3.33814 10.696 3.46904 10.557 3.63384C10.257 4.01684 10.103 4.49544 10.125 4.98244V9.19964C10.125 9.41674 10.023 9.53104 9.80703 9.53104H7.88602C7.84202 9.53664 7.79602 9.53184 7.75402 9.51724C7.71102 9.50244 7.67303 9.47824 7.64103 9.44624C7.60903 9.41434 7.58503 9.37544 7.57003 9.33274C7.55503 9.29004 7.55103 9.24454 7.55703 9.19964V5.07384C7.58203 4.56704 7.42403 4.06804 7.11303 3.66814C6.97503 3.50014 6.80103 3.36494 6.60403 3.27214C6.40903 3.17934 6.19403 3.13114 5.97703 3.13104C5.74503 3.12164 5.51502 3.16154 5.29902 3.24824C5.08302 3.33494 4.88803 3.46634 4.72703 3.63384C4.40203 4.00464 4.23502 4.48894 4.26102 4.98244V9.19964C4.26702 9.24454 4.26202 9.29004 4.24802 9.33274C4.23302 9.37544 4.20902 9.41434 4.17702 9.44624C4.14502 9.47824 4.10702 9.50244 4.06502 9.51724C4.02102 9.53184 3.97602 9.53664 3.93202 9.53104H2.07902C1.86302 9.53104 1.76102 9.41674 1.76102 9.19964V3.81674C1.77502 3.72504 1.76702 3.63164 1.73702 3.54364C1.70902 3.45574 1.66002 3.37574 1.59402 3.31024C1.52902 3.24474 1.45002 3.19544 1.36202 3.16634C1.27502 3.13724 1.18202 3.12904 1.09102 3.14244H0.716025C0.466025 3.14244 0.341025 3.05104 0.341025 2.86814V1.51964C0.335025 1.43614 0.35802 1.35324 0.40502 1.28464C0.45302 1.21594 0.523019 1.16574 0.602019 1.14244C0.995019 0.998843 1.41102 0.929043 1.82902 0.936743C2.23002 0.902343 2.63402 0.982843 2.99202 1.16884C3.35002 1.35494 3.64802 1.63894 3.85202 1.98814C4.23502 1.62284 4.69003 1.34074 5.18603 1.15984C5.68303 0.978944 6.21103 0.903043 6.73803 0.936743C7.25103 0.911643 7.76103 1.00814 8.22903 1.21864C8.69803 1.42924 9.10903 1.74764 9.43203 2.14814C9.80803 1.73704 10.27 1.41524 10.785 1.20564C11.3 0.996143 11.854 0.904443 12.409 0.936743C12.904 0.913443 13.4 0.993743 13.863 1.17284C14.327 1.35184 14.749 1.62554 15.102 1.97674C15.448 2.34304 15.715 2.77604 15.888 3.24954C16.062 3.72294 16.14 4.22704 16.113 4.73104V6.93674C16.113 7.37104 16.307 7.58814 16.67 7.58814C16.846 7.59644 17.023 7.57724 17.193 7.53104C17.428 7.53104 17.553 7.62244 17.568 7.80534L17.67 9.23384Z" fill="#010032"/>
</svg>
