<svg width="12" height="14" viewBox="0 0 12 14" fill="none" xmlns="http://www.w3.org/2000/svg">
<path d="M6.82978 0.936813C7.42608 0.913113 8.02098 1.01021 8.57928 1.22221C9.13798 1.43431 9.64798 1.75691 10.08 2.17111C10.883 3.03851 11.33 4.17991 11.33 5.36541C11.33 6.55091 10.883 7.69231 10.08 8.55971C9.64998 8.97761 9.13998 9.30341 8.58168 9.51751C8.02308 9.73171 7.42708 9.82961 6.82978 9.80541C5.97878 9.82451 5.14488 9.56371 4.45478 9.06251V13.1882C4.45478 13.4054 4.34108 13.5082 4.12518 13.5082H2.21608C2.17258 13.5165 2.12768 13.5138 2.08528 13.5007C2.04308 13.4874 2.00448 13.4641 1.97318 13.4326C1.94188 13.401 1.91858 13.3624 1.90548 13.3198C1.89238 13.2773 1.88988 13.2321 1.89788 13.1882V3.81681C1.91128 3.72511 1.90318 3.63171 1.87428 3.54371C1.84528 3.45581 1.79618 3.37581 1.73108 3.31031C1.66598 3.24481 1.58658 3.19551 1.49908 3.16641C1.41168 3.13731 1.31858 3.12911 1.22748 3.14251H0.852479C0.602479 3.14251 0.477479 3.05111 0.477479 2.86821V1.51971C0.471579 1.43621 0.494279 1.35331 0.541879 1.28471C0.589379 1.21601 0.658979 1.16581 0.738779 1.14251C1.13188 0.998913 1.54788 0.929113 1.96608 0.936813C2.38318 0.899713 2.80168 0.988712 3.16818 1.19221C3.53448 1.39591 3.83228 1.70491 4.02288 2.07971C4.38898 1.70731 4.82668 1.41391 5.30928 1.21741C5.79188 1.02091 6.30928 0.925413 6.82978 0.936813ZM5.05698 7.07391C5.25958 7.28701 5.50308 7.45651 5.77258 7.57221C6.04208 7.68801 6.33218 7.74771 6.62518 7.74771C6.91828 7.74771 7.20838 7.68801 7.47778 7.57221C7.74738 7.45651 7.99078 7.28701 8.19338 7.07391C8.62018 6.59521 8.84438 5.96791 8.81838 5.32541C8.84818 4.68241 8.62338 4.05361 8.19338 3.57681C7.99078 3.36391 7.74738 3.19441 7.47778 3.07861C7.20838 2.96271 6.91828 2.90311 6.62518 2.90311C6.33218 2.90311 6.04208 2.96271 5.77258 3.07861C5.50308 3.19441 5.25958 3.36391 5.05698 3.57681C4.64358 4.06211 4.42838 4.68691 4.45478 5.32541C4.43168 5.96341 4.64658 6.58711 5.05698 7.07391Z" fill="#010032"/>
</svg>
