<svg width="11" height="9" viewBox="0 0 11 9" fill="none" xmlns="http://www.w3.org/2000/svg">
<path d="M10.6129 8.23386C10.6199 8.27446 10.6179 8.31596 10.6089 8.35586C10.5989 8.39586 10.5819 8.43336 10.5569 8.46636C10.5329 8.49936 10.5019 8.52716 10.4669 8.54806C10.4319 8.56896 10.3929 8.58256 10.3519 8.58816C9.93694 8.72446 9.50395 8.79766 9.06795 8.80536C8.63595 8.85036 8.19995 8.78246 7.80195 8.60826C7.40295 8.43416 7.05694 8.15946 6.79494 7.81106C5.99294 8.50506 4.95395 8.86126 3.89795 8.80536C3.40695 8.82806 2.91694 8.74726 2.45894 8.56816C2.00094 8.38906 1.58494 8.11566 1.23794 7.76536C0.893943 7.39836 0.626947 6.96526 0.452947 6.49196C0.279947 6.01866 0.202942 5.51506 0.226942 5.01106V0.542459C0.226942 0.325359 0.328942 0.21106 0.544942 0.21106H2.45395C2.66995 0.21106 2.77195 0.325359 2.77195 0.542459V4.66816C2.75195 5.18226 2.92595 5.68486 3.26095 6.07386C3.42795 6.25216 3.63195 6.39226 3.85695 6.48496C4.08195 6.57766 4.32494 6.62066 4.56795 6.61106C4.81695 6.62206 5.06595 6.58326 5.29995 6.49686C5.53395 6.41056 5.74894 6.27846 5.93194 6.10816C6.10394 5.92876 6.23995 5.71546 6.32695 5.48156C6.41595 5.24766 6.45395 4.99806 6.44295 4.74816V0.542459C6.44295 0.325359 6.54495 0.21106 6.76095 0.21106H8.69295C8.90895 0.21106 9.01095 0.325359 9.01095 0.542459V5.92536C9.01095 6.37106 9.20395 6.58816 9.57895 6.58816C9.75495 6.59506 9.93194 6.57586 10.1019 6.53106C10.1449 6.51896 10.1909 6.51676 10.2339 6.52476C10.2779 6.53266 10.3189 6.55046 10.3549 6.57686C10.3919 6.60326 10.4209 6.63756 10.4429 6.67706C10.4629 6.71666 10.4749 6.76056 10.4769 6.80536L10.6129 8.23386Z" fill="#010032"/>
</svg>
