<svg width="10" height="10" viewBox="0 0 10 10" fill="none" xmlns="http://www.w3.org/2000/svg">
<path d="M8.68117 8.58245C7.72197 9.37965 6.51637 9.81565 5.27207 9.81565C4.02777 9.81565 2.82227 9.37965 1.86297 8.58245C1.01987 7.72645 0.546875 6.57025 0.546875 5.36535C0.546875 4.16045 1.01987 3.00415 1.86297 2.14815C2.82407 1.35515 4.02887 0.921753 5.27207 0.921753C6.51527 0.921753 7.72007 1.35515 8.68117 2.14815C9.50487 3.01205 9.96478 4.16265 9.96478 5.35965C9.96478 6.55655 9.50487 7.70715 8.68117 8.57105V8.58245ZM3.65847 7.07385C4.10367 7.47945 4.68277 7.70405 5.28347 7.70405C5.88407 7.70405 6.46337 7.47945 6.90847 7.07385C7.31137 6.60805 7.53317 6.01135 7.53317 5.39385C7.53317 4.77655 7.31137 4.17985 6.90847 3.71385C6.46337 3.30845 5.88407 3.08375 5.28347 3.08375C4.68277 3.08375 4.10367 3.30845 3.65847 3.71385C3.25557 4.17985 3.03367 4.77655 3.03367 5.39385C3.03367 6.01135 3.25557 6.60805 3.65847 7.07385Z" fill="#010032"/>
</svg>
