<svg width="5" height="14" viewBox="0 0 5 14" fill="none" xmlns="http://www.w3.org/2000/svg">
<path d="M2.94401 13.8053C2.26811 13.8422 1.59951 13.6489 1.04621 13.2567C0.81511 13.0844 0.62911 12.858 0.50431 12.5972C0.37951 12.3362 0.31991 12.0488 0.33031 11.7596V1.16535C0.32491 1.12055 0.329511 1.07495 0.344211 1.03215C0.358711 0.989448 0.38281 0.950648 0.41471 0.918648C0.44651 0.886648 0.485011 0.862448 0.527511 0.847848C0.570011 0.833048 0.615311 0.828448 0.659911 0.833848H2.56901C2.78491 0.833848 2.88721 0.948147 2.88721 1.16535V10.9367C2.88721 11.371 3.08031 11.5881 3.47811 11.5881C3.64671 11.5951 3.81531 11.5759 3.97811 11.531C4.20531 11.531 4.33031 11.5996 4.34171 11.8053L4.51221 13.2338C4.52031 13.2756 4.51951 13.3184 4.50991 13.3598C4.50021 13.401 4.48181 13.4399 4.45591 13.4734C4.43011 13.507 4.39741 13.5346 4.36011 13.5544C4.32271 13.5742 4.28161 13.5857 4.23941 13.5881C3.82121 13.7271 3.38431 13.8004 2.94401 13.8053Z" fill="#010032"/>
</svg>
