<svg width="33" height="28" viewBox="0 0 33 28" fill="none" xmlns="http://www.w3.org/2000/svg">
<path d="M1.42099 12.7254C2.25936 9.33654 4.201 6.32704 6.9368 4.17634C9.6726 2.02557 13.0452 0.857178 16.5176 0.857178C19.99 0.857178 23.3626 2.02557 26.0984 4.17634C28.8342 6.32704 30.7758 9.33654 31.6142 12.7254H30.2505C27.9502 12.6913 25.697 13.3827 23.8074 14.7025C23.6983 14.7819 23.5844 14.8545 23.4664 14.9197H23.3074C23.1894 14.8545 23.0755 14.7819 22.9664 14.7025C21.0601 13.4133 18.8148 12.7247 16.5176 12.7247C14.2203 12.7247 11.9751 13.4133 10.0687 14.7025C9.9596 14.7819 9.8458 14.8545 9.7278 14.9197H9.5687C9.4508 14.8545 9.3369 14.7819 9.2278 14.7025C7.3381 13.3827 5.085 12.6913 2.78462 12.7254H1.42099ZM27.796 19.8911C28.496 19.3429 29.3636 19.056 30.2505 19.0797H32.0801V15.4111H30.2505C28.6883 15.3921 27.1618 15.8811 25.8983 16.8054C25.1872 17.3326 24.3271 17.617 23.4437 17.617C22.5603 17.617 21.7002 17.3326 20.9892 16.8054C19.6936 15.8984 18.1529 15.4121 16.5744 15.4121C14.9959 15.4121 13.4552 15.8984 12.1596 16.8054C11.4486 17.3326 10.5885 17.617 9.7051 17.617C8.8217 17.617 7.9616 17.3326 7.2505 16.8054C5.9714 15.8693 4.423 15.3797 2.84144 15.4111H0.955078V19.0797H2.78462C3.6716 19.056 4.5392 19.3429 5.2392 19.8911C6.5324 20.7987 8.0713 21.2854 9.6483 21.2854C11.2252 21.2854 12.7642 20.7987 14.0574 19.8911C14.7583 19.3446 15.6252 19.0579 16.5119 19.0797C17.3992 19.0541 18.2674 19.3411 18.9664 19.8911C20.262 20.7982 21.8027 21.2843 23.3812 21.2843C24.9597 21.2843 26.5004 20.7982 27.796 19.8911ZM27.796 26.4511C28.496 25.9029 29.3636 25.616 30.2505 25.6397H32.0801V21.9711H30.2505C28.6883 21.9521 27.1618 22.4411 25.8983 23.3654C25.1872 23.8926 24.3271 24.177 23.4437 24.177C22.5603 24.177 21.7002 23.8926 20.9892 23.3654C19.6936 22.4584 18.1529 21.9722 16.5744 21.9722C14.9959 21.9722 13.4552 22.4584 12.1596 23.3654C11.4486 23.8926 10.5885 24.177 9.7051 24.177C8.8217 24.177 7.9616 23.8926 7.2505 23.3654C5.9714 22.4294 4.423 21.9397 2.84144 21.9711H0.955078V25.6397H2.78462C3.6716 25.616 4.5392 25.9029 5.2392 26.4511C6.5324 27.3587 8.0713 27.8454 9.6483 27.8454C11.2252 27.8454 12.7642 27.3587 14.0574 26.4511C14.7583 25.9046 15.6252 25.6179 16.5119 25.6397C17.3992 25.6141 18.2674 25.9011 18.9664 26.4511C20.262 27.3582 21.8027 27.8443 23.3812 27.8443C24.9597 27.8443 26.5004 27.3582 27.796 26.4511Z" fill="#010032"/>
</svg>
