<svg width="10" height="14" viewBox="0 0 10 14" fill="none" xmlns="http://www.w3.org/2000/svg">
<path d="M9.47705 1.21116C9.69295 1.21116 9.79526 1.32546 9.79526 1.54256V9.73686C9.81516 10.29 9.71216 10.8406 9.49396 11.3486C9.27576 11.8567 8.94785 12.3095 8.53385 12.674C7.61505 13.462 6.43345 13.8704 5.22705 13.8169C4.13745 13.8554 3.06235 13.5562 2.14745 12.9598C1.75685 12.7018 1.42305 12.3657 1.16705 11.9726C0.910953 11.5793 0.737952 11.1374 0.658852 10.674C0.658852 10.4455 0.658852 10.3426 0.965652 10.3426H2.87476C2.95576 10.3454 3.03445 10.3718 3.10095 10.4184C3.16745 10.465 3.21926 10.5299 3.24976 10.6055C3.37366 10.9526 3.62046 11.2416 3.94296 11.4169C4.33606 11.6209 4.77355 11.7231 5.21565 11.714C5.48245 11.7288 5.74955 11.6898 6.00125 11.5995C6.25295 11.5094 6.48426 11.3695 6.68156 11.1883C6.86196 10.9988 7.00216 10.7745 7.09396 10.529C7.18576 10.2835 7.22715 10.0218 7.21565 9.75976V9.03976C6.53215 9.54536 5.70025 9.80676 4.85205 9.78256C4.25845 9.80426 3.66655 9.70516 3.11195 9.49116C2.55735 9.27696 2.05156 8.95256 1.62476 8.53686C0.805556 7.68456 0.347656 6.54536 0.347656 5.35976C0.347656 4.17426 0.805556 3.03506 1.62476 2.18256C2.05366 1.77066 2.56016 1.44936 3.11436 1.23736C3.66866 1.02536 4.25945 0.927059 4.85205 0.948259C5.72475 0.925059 6.57905 1.20346 7.27245 1.73686V1.55396C7.26725 1.51026 7.27185 1.46576 7.28575 1.42396C7.29975 1.38226 7.32286 1.34406 7.35326 1.31226C7.38376 1.28056 7.42095 1.25606 7.46195 1.24056C7.50305 1.22496 7.54705 1.21896 7.59065 1.22256L9.47705 1.21116ZM5.06796 7.74826C5.36065 7.75746 5.65195 7.70176 5.92095 7.58516C6.18985 7.46876 6.43026 7.29426 6.62476 7.07396C7.00266 6.58336 7.20766 5.98026 7.20766 5.35976C7.20766 4.73916 7.00266 4.13616 6.62476 3.64546C6.43096 3.42826 6.19206 3.25626 5.92516 3.14176C5.65806 3.02726 5.36945 2.97296 5.07935 2.98256C4.78315 2.97316 4.48866 3.02866 4.21596 3.14506C3.94316 3.26156 3.69886 3.43616 3.49976 3.65686C3.08126 4.12626 2.86115 4.74116 2.88615 5.37116C2.86565 5.99496 3.08096 6.60336 3.48846 7.07396C3.68796 7.29416 3.93236 7.46836 4.20496 7.58476C4.47766 7.70106 4.77196 7.75686 5.06796 7.74826Z" fill="#010032"/>
</svg>
