<svg width="179" height="23" viewBox="0 0 179 23" fill="none" xmlns="http://www.w3.org/2000/svg">
<path d="M0 19.8493V0.0336514H15.6725C16.7939 -0.066519 17.9123 0.261678 18.8336 0.961261C19.1748 1.3446 19.4358 1.80296 19.5989 2.30521C19.7621 2.80745 19.8235 3.34183 19.7789 3.87204V6.30302C19.7943 6.71922 19.7301 7.13437 19.5903 7.52243C19.4505 7.91049 19.2381 8.26308 18.9665 8.55807C18.3273 9.20811 17.494 9.58832 16.6178 9.62962C17.542 9.72118 18.4084 10.1563 19.0699 10.8611C19.3623 11.2081 19.5885 11.6142 19.7355 12.056C19.8825 12.4979 19.9475 12.9669 19.9266 13.436V15.963C19.9568 16.5374 19.8488 17.1106 19.6132 17.6264C19.3776 18.1422 19.0224 18.583 18.5825 18.9057C17.3455 19.6371 15.9411 19.9701 14.5351 19.8653L0 19.8493ZM13.8851 3.26429H4.18031V8.06227H13.8851C14.3935 8.10061 14.9023 7.99593 15.3623 7.7584C15.5153 7.62543 15.6357 7.45377 15.7129 7.25854C15.7902 7.06332 15.822 6.85051 15.8054 6.63887V4.6717C15.8194 4.46035 15.7865 4.24842 15.7094 4.05366C15.6323 3.85889 15.5133 3.68694 15.3623 3.55217C14.8987 3.32799 14.3918 3.22919 13.8851 3.26429ZM13.8851 11.2609H4.18031V16.2988H13.8851C14.4558 16.3693 15.032 16.2344 15.5248 15.915C15.6828 15.7289 15.8027 15.5087 15.8765 15.2689C15.9503 15.0291 15.9765 14.7751 15.9531 14.5236V13.0362C15.9765 12.7847 15.9503 12.5306 15.8765 12.2908C15.8027 12.051 15.6828 11.8308 15.5248 11.6448C15.0317 11.3252 14.4571 11.1851 13.8851 11.2449V11.2609Z" fill="#3A5B8C"/>
<path d="M28.1692 4.71968C28.0316 3.40964 28.3648 2.0925 29.0998 1.04123C30.1202 0.268342 31.3604 -0.0885881 32.6006 0.0336536H49.1889V16.1229H52.867V23H49.1889V19.8013H28.1692V23H24.2104V16.1229H28.1692V4.71968ZM32.4234 16.1229H44.9938V3.56817H32.3643L32.4234 16.1229Z" fill="#3A5B8C"/>
<path d="M57.2393 19.8493V0.0335919H72.8674C73.9979 -0.0587257 75.1248 0.25615 76.0728 0.929214C76.419 1.31602 76.684 1.77918 76.8497 2.28706C77.0154 2.79493 77.0779 3.33555 77.033 3.87198V8.28612C77.0768 8.82138 77.0123 9.36055 76.8439 9.86604C76.6756 10.3715 76.4074 10.8312 76.058 11.2129C75.1256 11.9123 73.998 12.2401 72.8674 12.1405H61.4196V19.8493H57.2393ZM71.0062 3.45615H61.4196V8.71794H71.0062C71.5201 8.76472 72.0351 8.64206 72.4834 8.36609C72.6234 8.20136 72.73 8.00663 72.7962 7.79449C72.8623 7.58236 72.8866 7.35754 72.8674 7.1346V5.02349C72.8845 4.80315 72.8592 4.58137 72.7931 4.37216C72.727 4.16295 72.6215 3.97085 72.4834 3.808C72.0351 3.53203 71.5201 3.40937 71.0062 3.45615Z" fill="#3A5B8C"/>
<path d="M84.6401 11.5968V7.71045H95.246V11.6768L84.6401 11.5968Z" fill="#3A5B8C"/>
<path d="M119.427 3.5682H107.935V16.1229H119.427V13.8039H123.681V15.1633C123.806 16.4995 123.458 17.8374 122.706 18.9058C121.645 19.6872 120.364 20.0383 119.087 19.8973H108.23C106.953 20.044 105.67 19.6923 104.611 18.9058C103.879 17.8467 103.547 16.526 103.681 15.2113V4.71972C103.546 3.40993 103.879 2.09401 104.611 1.04127C105.665 0.24111 106.951 -0.116997 108.23 0.0336917H119.146C120.425 -0.114053 121.711 0.243792 122.765 1.04127C123.486 2.09983 123.812 3.41263 123.681 4.71972V5.80726H119.427V3.5682Z" fill="#3A5B8C"/>
<path d="M128.216 19.8492V0.0335693H131.658L140.269 12.0125L148.704 0.0335693H152.116V19.8492H148.172V7.59839C148.172 7.24654 148.172 6.94266 148.172 6.71876C148.172 6.49485 148.246 5.99906 148.275 5.48728C148.157 5.72718 148.054 5.96707 147.95 6.19098C147.87 6.38495 147.776 6.57207 147.67 6.75074C147.537 7.03511 147.384 7.30783 147.212 7.5664L140.432 17.4662H139.575L132.706 7.51842C132.466 7.18192 132.254 6.82338 132.071 6.44687C131.881 6.14946 131.727 5.82698 131.613 5.48728C131.613 5.9031 131.613 6.28694 131.717 6.63879V19.8492H128.216Z" fill="#3A5B8C"/>
<path d="M158.32 19.8492V0.0335693H179V19.8492H174.746V3.76H162.589V19.8492H158.32Z" fill="#3A5B8C"/>
</svg>
