<svg width="135" height="28" viewBox="0 0 135 28" fill="none" xmlns="http://www.w3.org/2000/svg">
<path d="M43.944 22.8053C43.2681 22.8422 42.5995 22.6489 42.0462 22.2567C41.8151 22.0844 41.6291 21.858 41.5043 21.5972C41.3795 21.3362 41.3199 21.0488 41.3303 20.7596V10.1653C41.3249 10.1205 41.3295 10.0749 41.3442 10.0321C41.3587 9.98945 41.3828 9.95065 41.4147 9.91865C41.4465 9.88665 41.485 9.86245 41.5275 9.84785C41.57 9.83305 41.6153 9.82845 41.6599 9.83385H43.569C43.7849 9.83385 43.8872 9.94815 43.8872 10.1653V19.9367C43.8872 20.371 44.0803 20.5881 44.4781 20.5881C44.6467 20.5951 44.8153 20.5759 44.9781 20.531C45.2053 20.531 45.3303 20.5996 45.3417 20.8053L45.5122 22.2338C45.5203 22.2756 45.5195 22.3184 45.5099 22.3598C45.5002 22.401 45.4818 22.4399 45.4559 22.4734C45.4301 22.507 45.3974 22.5346 45.3601 22.5544C45.3227 22.5742 45.2816 22.5857 45.2394 22.5881C44.8212 22.7271 44.3843 22.8004 43.944 22.8053Z" fill="#010032"/>
<path d="M54.6812 21.5825C53.722 22.3797 52.5164 22.8157 51.2721 22.8157C50.0278 22.8157 48.8223 22.3797 47.863 21.5825C47.0199 20.7265 46.5469 19.5703 46.5469 18.3654C46.5469 17.1605 47.0199 16.0042 47.863 15.1482C48.8241 14.3552 50.0289 13.9218 51.2721 13.9218C52.5153 13.9218 53.7201 14.3552 54.6812 15.1482C55.5049 16.0121 55.9648 17.1627 55.9648 18.3597C55.9648 19.5566 55.5049 20.7072 54.6812 21.5711V21.5825ZM49.6585 20.0739C50.1037 20.4795 50.6828 20.7041 51.2835 20.7041C51.8841 20.7041 52.4634 20.4795 52.9085 20.0739C53.3114 19.6081 53.5332 19.0114 53.5332 18.3939C53.5332 17.7766 53.3114 17.1799 52.9085 16.7139C52.4634 16.3085 51.8841 16.0838 51.2835 16.0838C50.6828 16.0838 50.1037 16.3085 49.6585 16.7139C49.2556 17.1799 49.0337 17.7766 49.0337 18.3939C49.0337 19.0114 49.2556 19.6081 49.6585 20.0739Z" fill="#010032"/>
<path d="M66.4771 14.2112C66.693 14.2112 66.7953 14.3255 66.7953 14.5426V22.7369C66.8152 23.29 66.7122 23.8406 66.494 24.3486C66.2758 24.8567 65.9479 25.3095 65.5339 25.674C64.6151 26.462 63.4335 26.8704 62.2271 26.8169C61.1375 26.8554 60.0624 26.5562 59.1475 25.9598C58.7569 25.7018 58.4231 25.3657 58.1671 24.9726C57.911 24.5793 57.738 24.1374 57.6589 23.674C57.6589 23.4455 57.6589 23.3426 57.9657 23.3426H59.8748C59.9558 23.3454 60.0345 23.3718 60.101 23.4184C60.1675 23.465 60.2193 23.5299 60.2498 23.6055C60.3737 23.9526 60.6205 24.2416 60.943 24.4169C61.3361 24.6209 61.7736 24.7231 62.2157 24.714C62.4825 24.7288 62.7496 24.6898 63.0013 24.5995C63.253 24.5094 63.4843 24.3695 63.6816 24.1883C63.862 23.9988 64.0022 23.7745 64.094 23.529C64.1858 23.2835 64.2272 23.0218 64.2157 22.7598V22.0398C63.5322 22.5454 62.7003 22.8068 61.8521 22.7826C61.2585 22.8043 60.6666 22.7052 60.112 22.4912C59.5574 22.277 59.0516 21.9526 58.6248 21.5369C57.8056 20.6846 57.3477 19.5454 57.3477 18.3598C57.3477 17.1743 57.8056 16.0351 58.6248 15.1826C59.0537 14.7707 59.5602 14.4494 60.1144 14.2374C60.6687 14.0254 61.2595 13.9271 61.8521 13.9483C62.7248 13.9251 63.5791 14.2035 64.2725 14.7369V14.554C64.2673 14.5103 64.2719 14.4658 64.2858 14.424C64.2998 14.3823 64.3229 14.3441 64.3533 14.3123C64.3838 14.2806 64.421 14.2561 64.462 14.2406C64.5031 14.225 64.5471 14.219 64.5907 14.2226L66.4771 14.2112ZM62.068 20.7483C62.3607 20.7575 62.652 20.7018 62.921 20.5852C63.1899 20.4688 63.4303 20.2943 63.6248 20.074C64.0027 19.5834 64.2077 18.9803 64.2077 18.3598C64.2077 17.7392 64.0027 17.1362 63.6248 16.6455C63.431 16.4283 63.1921 16.2563 62.9252 16.1418C62.6581 16.0273 62.3695 15.973 62.0794 15.9826C61.7832 15.9732 61.4887 16.0287 61.216 16.1451C60.9432 16.2616 60.6989 16.4362 60.4998 16.6569C60.0813 17.1263 59.8612 17.7412 59.8862 18.3712C59.8657 18.995 60.081 19.6034 60.4885 20.074C60.688 20.2942 60.9324 20.4684 61.205 20.5848C61.4777 20.7011 61.772 20.7569 62.068 20.7483Z" fill="#010032"/>
<path d="M76.6028 21.5824C75.6417 22.3754 74.4369 22.8088 73.1937 22.8088C71.9506 22.8088 70.7458 22.3754 69.7847 21.5824C68.9602 20.7166 68.5 19.5641 68.5 18.3653C68.5 17.1665 68.9602 16.014 69.7847 15.1481C70.7467 14.3572 71.9511 13.925 73.1937 13.925C74.4364 13.925 75.6408 14.3572 76.6028 15.1481C77.4266 16.012 77.8865 17.1626 77.8865 18.3596C77.8865 19.5565 77.4266 20.7071 76.6028 21.571V21.5824ZM71.5687 20.0738C71.7866 20.2823 72.0434 20.4452 72.3243 20.553C72.6052 20.6609 72.9045 20.7118 73.2051 20.7024C73.5038 20.7102 73.801 20.6588 74.0799 20.5509C74.3587 20.443 74.6136 20.2809 74.8301 20.0738C75.2265 19.6048 75.4441 19.0094 75.4441 18.3938C75.4441 17.7783 75.2265 17.1829 74.8301 16.7138C74.6136 16.5069 74.3587 16.3447 74.0799 16.2369C73.801 16.129 73.5038 16.0775 73.2051 16.0853C72.9045 16.076 72.6052 16.1268 72.3243 16.2346C72.0434 16.3425 71.7866 16.5055 71.5687 16.7138C71.1725 17.1829 70.9549 17.7783 70.9549 18.3938C70.9549 19.0094 71.1725 19.6048 71.5687 20.0738Z" fill="#010032"/>
<path d="M81.9884 12.2681C81.6881 12.5326 81.3024 12.6783 80.9032 12.6783C80.504 12.6783 80.1184 12.5326 79.818 12.2681C79.6818 12.1389 79.5733 11.983 79.4991 11.8101C79.425 11.6372 79.3867 11.4508 79.3867 11.2624C79.3867 11.0741 79.425 10.8878 79.4991 10.7148C79.5733 10.5418 79.6818 10.386 79.818 10.2567C80.1215 9.99894 80.5059 9.85754 80.9032 9.85754C81.3005 9.85754 81.6849 9.99894 81.9884 10.2567C82.1247 10.386 82.2332 10.5418 82.3073 10.7148C82.3815 10.8878 82.4197 11.0741 82.4197 11.2624C82.4197 11.4508 82.3815 11.6372 82.3073 11.8101C82.2332 11.983 82.1247 12.1389 81.9884 12.2681ZM82.2271 22.8053C81.5516 22.8386 80.8842 22.6457 80.3293 22.2567C80.1017 22.0818 79.9189 21.8546 79.7964 21.5942C79.6738 21.3337 79.6149 21.0476 79.6248 20.7596V14.5424C79.6193 14.4976 79.624 14.452 79.6387 14.4093C79.6532 14.3665 79.6773 14.3278 79.7091 14.2958C79.7409 14.2638 79.7795 14.2396 79.822 14.2249C79.8645 14.2102 79.9098 14.2055 79.9543 14.211H81.8634C82.0793 14.211 82.1816 14.3253 82.1816 14.5424V19.9367C82.1816 20.371 82.3748 20.5881 82.7612 20.5881C82.9335 20.5944 83.1058 20.5751 83.2725 20.531C83.4998 20.531 83.6248 20.5996 83.6362 20.8053L83.8066 22.2338C83.8148 22.2756 83.814 22.3184 83.8043 22.3598C83.7947 22.401 83.7763 22.4399 83.7504 22.4734C83.7246 22.507 83.6918 22.5346 83.6546 22.5544C83.6172 22.5742 83.576 22.5857 83.5339 22.5881C83.1121 22.7279 82.6713 22.8012 82.2271 22.8053Z" fill="#010032"/>
<path d="M90.8298 13.9368C91.4261 13.9131 92.021 14.0102 92.5793 14.2222C93.138 14.4343 93.648 14.7569 94.08 15.1711C94.883 16.0385 95.33 17.1799 95.33 18.3654C95.33 19.5509 94.883 20.6923 94.08 21.5597C93.65 21.9776 93.14 22.3034 92.5817 22.5175C92.0231 22.7317 91.4271 22.8296 90.8298 22.8054C89.9788 22.8245 89.1449 22.5637 88.4548 22.0625V26.1882C88.4548 26.4054 88.3411 26.5082 88.1252 26.5082H86.2161C86.1726 26.5165 86.1277 26.5138 86.0853 26.5007C86.0431 26.4874 86.0045 26.4641 85.9732 26.4326C85.9419 26.401 85.9186 26.3624 85.9055 26.3198C85.8924 26.2773 85.8899 26.2321 85.8979 26.1882V16.8168C85.9113 16.7251 85.9032 16.6317 85.8743 16.5437C85.8453 16.4558 85.7962 16.3758 85.7311 16.3103C85.666 16.2448 85.5866 16.1955 85.4991 16.1664C85.4117 16.1373 85.3186 16.1291 85.2275 16.1425H84.8525C84.6025 16.1425 84.4775 16.0511 84.4775 15.8682V14.5197C84.4716 14.4362 84.4943 14.3533 84.5419 14.2847C84.5894 14.216 84.659 14.1658 84.7388 14.1425C85.1319 13.9989 85.5479 13.9291 85.9661 13.9368C86.3832 13.8997 86.8017 13.9887 87.1682 14.1922C87.5345 14.3959 87.8323 14.7049 88.0229 15.0797C88.389 14.7073 88.8267 14.4139 89.3093 14.2174C89.7919 14.0209 90.3093 13.9254 90.8298 13.9368ZM89.057 20.0739C89.2596 20.287 89.5031 20.4565 89.7726 20.5722C90.0421 20.688 90.3322 20.7477 90.6252 20.7477C90.9183 20.7477 91.2084 20.688 91.4778 20.5722C91.7474 20.4565 91.9908 20.287 92.1934 20.0739C92.6202 19.5952 92.8444 18.9679 92.8184 18.3254C92.8482 17.6824 92.6234 17.0536 92.1934 16.5768C91.9908 16.3639 91.7474 16.1944 91.4778 16.0786C91.2084 15.9627 90.9183 15.9031 90.6252 15.9031C90.3322 15.9031 90.0421 15.9627 89.7726 16.0786C89.5031 16.1944 89.2596 16.3639 89.057 16.5768C88.6436 17.0621 88.4284 17.6869 88.4548 18.3254C88.4317 18.9634 88.6466 19.5871 89.057 20.0739Z" fill="#010032"/>
<path d="M100.694 22.8053C99.6741 22.8474 98.6621 22.6021 97.7731 22.0967C97.4171 21.8807 97.1131 21.5866 96.8851 21.2365C96.6571 20.8863 96.5101 20.4889 96.4551 20.0738C96.4551 19.8453 96.5351 19.731 96.7851 19.731H98.4551C98.5351 19.7342 98.6121 19.7592 98.6781 19.8037C98.7441 19.848 98.7971 19.9098 98.8301 19.9824C99.0691 20.5996 99.6941 20.9081 100.694 20.9081C101.043 20.9242 101.39 20.8535 101.705 20.7024C101.814 20.653 101.907 20.5749 101.975 20.4762C102.043 20.3776 102.083 20.2622 102.091 20.1424C102.091 19.8453 101.91 19.6396 101.546 19.5024C101.115 19.3581 100.669 19.2622 100.216 19.2167C99.6811 19.1557 99.1491 19.0602 98.6261 18.931C98.1161 18.8151 97.6531 18.5484 97.2961 18.1653C97.0861 17.9049 96.9311 17.6038 96.8411 17.2807C96.7511 16.9576 96.7291 16.6193 96.7751 16.2871C96.8211 15.9548 96.9341 15.6354 97.1081 15.3492C97.2811 15.0628 97.5121 14.8154 97.7851 14.6224C98.6041 14.0977 99.5651 13.8421 100.535 13.891C101.474 13.8591 102.403 14.0927 103.216 14.5653C103.544 14.7521 103.827 15.0101 104.043 15.3205C104.259 15.6309 104.404 15.9858 104.466 16.3596C104.466 16.5881 104.364 16.7024 104.16 16.7024H102.478C102.407 16.7066 102.337 16.6893 102.276 16.6526C102.215 16.6159 102.167 16.5615 102.137 16.4967C102.025 16.2261 101.813 16.0092 101.546 15.891C101.245 15.7326 100.908 15.6538 100.569 15.6624C100.236 15.6442 99.9031 15.7111 99.6031 15.8567C99.4971 15.8978 99.4061 15.9698 99.3411 16.0636C99.2761 16.1573 99.2411 16.2684 99.2391 16.3824C99.2461 16.5388 99.3031 16.6886 99.4021 16.81C99.5001 16.9313 99.6341 17.0177 99.7851 17.0567C100.221 17.2222 100.675 17.3372 101.137 17.3996C101.668 17.47 102.196 17.5692 102.716 17.6967C103.226 17.8127 103.689 18.0793 104.046 18.4624C104.237 18.6735 104.385 18.9205 104.48 19.1893C104.576 19.458 104.617 19.7431 104.603 20.0281C104.613 20.4232 104.52 20.8141 104.335 21.1626C104.15 21.5111 103.878 21.8054 103.546 22.0167C102.697 22.5649 101.702 22.8399 100.694 22.8053Z" fill="#010032"/>
<path d="M116.613 22.2339C116.62 22.2745 116.618 22.316 116.609 22.3559C116.599 22.3959 116.582 22.4334 116.557 22.4664C116.533 22.4994 116.502 22.5272 116.467 22.5481C116.432 22.569 116.393 22.5826 116.352 22.5882C115.937 22.7245 115.504 22.7977 115.068 22.8054C114.636 22.8504 114.2 22.7825 113.802 22.6083C113.403 22.4342 113.057 22.1595 112.795 21.8111C111.993 22.5051 110.954 22.8613 109.898 22.8054C109.407 22.8281 108.917 22.7473 108.459 22.5682C108.001 22.3891 107.585 22.1157 107.238 21.7654C106.894 21.3984 106.627 20.9653 106.453 20.492C106.28 20.0187 106.203 19.5151 106.227 19.0111V14.5425C106.227 14.3254 106.329 14.2111 106.545 14.2111H108.454C108.67 14.2111 108.772 14.3254 108.772 14.5425V18.6682C108.752 19.1823 108.926 19.6849 109.261 20.0739C109.428 20.2522 109.632 20.3923 109.857 20.485C110.082 20.5777 110.325 20.6207 110.568 20.6111C110.817 20.6221 111.066 20.5833 111.3 20.4969C111.534 20.4106 111.749 20.2785 111.932 20.1082C112.104 19.9288 112.24 19.7155 112.327 19.4816C112.416 19.2477 112.454 18.9981 112.443 18.7482V14.5425C112.443 14.3254 112.545 14.2111 112.761 14.2111H114.693C114.909 14.2111 115.011 14.3254 115.011 14.5425V19.9254C115.011 20.3711 115.204 20.5882 115.579 20.5882C115.755 20.5951 115.932 20.5759 116.102 20.5311C116.145 20.519 116.191 20.5168 116.234 20.5248C116.278 20.5327 116.319 20.5505 116.355 20.5769C116.392 20.6033 116.421 20.6376 116.443 20.6771C116.463 20.7167 116.475 20.7606 116.477 20.8054L116.613 22.2339Z" fill="#010032"/>
<path d="M134.67 22.2338C134.68 22.2748 134.682 22.3175 134.674 22.3589C134.665 22.4001 134.648 22.4392 134.623 22.473C134.598 22.5069 134.566 22.5348 134.528 22.5546C134.492 22.5746 134.451 22.5861 134.409 22.5881C133.986 22.7263 133.546 22.7996 133.102 22.8053C132.426 22.8404 131.759 22.6473 131.204 22.2567C130.965 22.0894 130.77 21.8653 130.637 21.6041C130.504 21.343 130.437 21.0528 130.443 20.7596V18.0738C130.467 17.5614 130.296 17.0589 129.966 16.6681C129.807 16.4895 129.609 16.3487 129.39 16.2558C129.169 16.163 128.932 16.1204 128.693 16.131C128.478 16.1229 128.265 16.1639 128.067 16.251C127.87 16.3381 127.696 16.469 127.557 16.6338C127.257 17.0168 127.103 17.4954 127.125 17.9824V22.1996C127.125 22.4167 127.023 22.531 126.807 22.531H124.886C124.842 22.5366 124.796 22.5318 124.754 22.5172C124.711 22.5024 124.673 22.4782 124.641 22.4462C124.609 22.4143 124.585 22.3754 124.57 22.3327C124.555 22.29 124.551 22.2445 124.557 22.1996V18.0738C124.582 17.567 124.424 17.068 124.113 16.6681C123.975 16.5001 123.801 16.3649 123.604 16.2721C123.409 16.1793 123.194 16.1311 122.977 16.131C122.745 16.1216 122.515 16.1615 122.299 16.2482C122.083 16.3349 121.888 16.4663 121.727 16.6338C121.402 17.0046 121.235 17.4889 121.261 17.9824V22.1996C121.267 22.2445 121.262 22.29 121.248 22.3327C121.233 22.3754 121.209 22.4143 121.177 22.4462C121.145 22.4782 121.107 22.5024 121.065 22.5172C121.021 22.5318 120.976 22.5366 120.932 22.531H119.079C118.863 22.531 118.761 22.4167 118.761 22.1996V16.8167C118.775 16.725 118.767 16.6316 118.737 16.5436C118.709 16.4557 118.66 16.3757 118.594 16.3102C118.529 16.2447 118.45 16.1954 118.362 16.1663C118.275 16.1372 118.182 16.129 118.091 16.1424H117.716C117.466 16.1424 117.341 16.051 117.341 15.8681V14.5196C117.335 14.4361 117.358 14.3532 117.405 14.2846C117.453 14.2159 117.523 14.1657 117.602 14.1424C117.995 13.9988 118.411 13.929 118.829 13.9367C119.23 13.9023 119.634 13.9828 119.992 14.1688C120.35 14.3549 120.648 14.6389 120.852 14.9881C121.235 14.6228 121.69 14.3407 122.186 14.1598C122.683 13.9789 123.211 13.903 123.738 13.9367C124.251 13.9116 124.761 14.0081 125.229 14.2186C125.698 14.4292 126.109 14.7476 126.432 15.1481C126.808 14.737 127.27 14.4152 127.785 14.2056C128.3 13.9961 128.854 13.9044 129.409 13.9367C129.904 13.9134 130.4 13.9937 130.863 14.1728C131.327 14.3518 131.749 14.6255 132.102 14.9767C132.448 15.343 132.715 15.776 132.888 16.2495C133.062 16.7229 133.14 17.227 133.113 17.731V19.9367C133.113 20.371 133.307 20.5881 133.67 20.5881C133.846 20.5964 134.023 20.5772 134.193 20.531C134.428 20.531 134.553 20.6224 134.568 20.8053L134.67 22.2338Z" fill="#010032"/>
<path d="M1.42099 12.7254C2.25936 9.33654 4.201 6.32704 6.9368 4.17634C9.6726 2.02557 13.0452 0.857178 16.5176 0.857178C19.99 0.857178 23.3626 2.02557 26.0984 4.17634C28.8342 6.32704 30.7758 9.33654 31.6142 12.7254H30.2505C27.9502 12.6913 25.697 13.3827 23.8074 14.7025C23.6983 14.7819 23.5844 14.8545 23.4664 14.9197H23.3074C23.1894 14.8545 23.0755 14.7819 22.9664 14.7025C21.0601 13.4133 18.8148 12.7247 16.5176 12.7247C14.2203 12.7247 11.9751 13.4133 10.0687 14.7025C9.9596 14.7819 9.8458 14.8545 9.7278 14.9197H9.5687C9.4508 14.8545 9.3369 14.7819 9.2278 14.7025C7.3381 13.3827 5.085 12.6913 2.78462 12.7254H1.42099ZM27.796 19.8911C28.496 19.3429 29.3636 19.056 30.2505 19.0797H32.0801V15.4111H30.2505C28.6883 15.3921 27.1618 15.8811 25.8983 16.8054C25.1872 17.3326 24.3271 17.617 23.4437 17.617C22.5603 17.617 21.7002 17.3326 20.9892 16.8054C19.6936 15.8984 18.1529 15.4121 16.5744 15.4121C14.9959 15.4121 13.4552 15.8984 12.1596 16.8054C11.4486 17.3326 10.5885 17.617 9.7051 17.617C8.8217 17.617 7.9616 17.3326 7.2505 16.8054C5.9714 15.8693 4.423 15.3797 2.84144 15.4111H0.955078V19.0797H2.78462C3.6716 19.056 4.5392 19.3429 5.2392 19.8911C6.5324 20.7987 8.0713 21.2854 9.6483 21.2854C11.2252 21.2854 12.7642 20.7987 14.0574 19.8911C14.7583 19.3446 15.6252 19.0579 16.5119 19.0797C17.3992 19.0541 18.2674 19.3411 18.9664 19.8911C20.262 20.7982 21.8027 21.2843 23.3812 21.2843C24.9597 21.2843 26.5004 20.7982 27.796 19.8911ZM27.796 26.4511C28.496 25.9029 29.3636 25.616 30.2505 25.6397H32.0801V21.9711H30.2505C28.6883 21.9521 27.1618 22.4411 25.8983 23.3654C25.1872 23.8926 24.3271 24.177 23.4437 24.177C22.5603 24.177 21.7002 23.8926 20.9892 23.3654C19.6936 22.4584 18.1529 21.9722 16.5744 21.9722C14.9959 21.9722 13.4552 22.4584 12.1596 23.3654C11.4486 23.8926 10.5885 24.177 9.7051 24.177C8.8217 24.177 7.9616 23.8926 7.2505 23.3654C5.9714 22.4294 4.423 21.9397 2.84144 21.9711H0.955078V25.6397H2.78462C3.6716 25.616 4.5392 25.9029 5.2392 26.4511C6.5324 27.3587 8.0713 27.8454 9.6483 27.8454C11.2252 27.8454 12.7642 27.3587 14.0574 26.4511C14.7583 25.9046 15.6252 25.6179 16.5119 25.6397C17.3992 25.6141 18.2674 25.9011 18.9664 26.4511C20.262 27.3582 21.8027 27.8443 23.3812 27.8443C24.9597 27.8443 26.5004 27.3582 27.796 26.4511Z" fill="#010032"/>
</svg>
