<svg width="219" height="27" viewBox="0 0 219 27" fill="none" xmlns="http://www.w3.org/2000/svg">
<path d="M0 22.4811V0.0380682H19.1747C20.5467 -0.0753838 21.9151 0.296329 23.0422 1.08867C23.4597 1.52284 23.779 2.04197 23.9786 2.61081C24.1782 3.17965 24.2533 3.78488 24.1988 4.38539V7.13869C24.2176 7.61008 24.1391 8.08028 23.968 8.51979C23.797 8.9593 23.5371 9.35864 23.2048 9.69274C22.4228 10.429 21.4032 10.8596 20.3313 10.9064C21.462 11.0101 22.5221 11.5029 23.3313 12.3011C23.689 12.6941 23.9658 13.154 24.1456 13.6545C24.3255 14.155 24.405 14.6861 24.3795 15.2175V18.0794C24.4164 18.7301 24.2843 19.3792 23.996 19.9634C23.7078 20.5476 23.2733 21.0468 22.735 21.4124C21.2216 22.2408 19.5034 22.6179 17.7831 22.4992L0 22.4811ZM16.988 3.69706H5.11446V9.13121H16.988C17.6099 9.17463 18.2325 9.05607 18.7952 8.78705C18.9823 8.63644 19.1297 8.44202 19.2242 8.22091C19.3188 7.9998 19.3576 7.75878 19.3374 7.51908V5.29108C19.3545 5.0517 19.3143 4.81168 19.2199 4.59109C19.1256 4.3705 18.98 4.17574 18.7952 4.02311C18.2281 3.7692 17.6078 3.6573 16.988 3.69706ZM16.988 12.754H5.11446V18.4598H16.988C17.6861 18.5397 18.3911 18.3869 18.994 18.0251C19.1873 17.8144 19.334 17.565 19.4243 17.2934C19.5147 17.0218 19.5466 16.7341 19.5181 16.4492V14.7646C19.5466 14.4797 19.5147 14.192 19.4243 13.9204C19.334 13.6488 19.1873 13.3994 18.994 13.1887C18.3908 12.8268 17.6877 12.668 16.988 12.7359V12.754Z" fill="white"/>
<path d="M34.4637 5.34546C34.2954 3.86172 34.7031 2.36995 35.6023 1.17928C36.8508 0.30392 38.3681 -0.100335 39.8854 0.0381151H60.1806V18.2606H64.6806V26.0496H60.1806V22.4268H34.4637V26.0496H29.6204V18.2606H34.4637V5.34546ZM39.6686 18.2606H55.0481V4.04127H39.5963L39.6686 18.2606Z" fill="white"/>
<path d="M70.03 22.4812V0.0381242H89.1505C90.5336 -0.0664338 91.9123 0.290191 93.0722 1.0525C93.4958 1.49059 93.82 2.01516 94.0227 2.59038C94.2255 3.16559 94.3019 3.77789 94.2469 4.38544V9.38486C94.3006 9.99109 94.2217 10.6018 94.0156 11.1743C93.8096 11.7468 93.4815 12.2674 93.0541 12.6997C91.9133 13.4919 90.5338 13.8631 89.1505 13.7503H75.1445V22.4812H70.03ZM86.8734 3.91448H75.1445V9.87393H86.8734C87.5021 9.92691 88.1322 9.78799 88.6806 9.47543C88.852 9.28886 88.9824 9.06831 89.0633 8.82805C89.1443 8.58778 89.174 8.33316 89.1505 8.08066V5.68964C89.1714 5.44008 89.1404 5.18889 89.0596 4.95194C88.9787 4.715 88.8497 4.49743 88.6806 4.31299C88.1322 4.00042 87.5021 3.8615 86.8734 3.91448Z" fill="white"/>
<path d="M103.554 13.1344V8.73279H116.53V13.225L103.554 13.1344Z" fill="white"/>
<path d="M146.114 4.04131H132.054V18.2607H146.114V15.6342H151.319V17.1738C151.472 18.6872 151.046 20.2024 150.126 21.4125C148.828 22.2975 147.26 22.6952 145.699 22.5355H132.416C130.853 22.7016 129.283 22.3034 127.988 21.4125C127.093 20.213 126.685 18.7172 126.849 17.2282V5.34551C126.685 3.86206 127.092 2.37165 127.988 1.17933C129.277 0.273079 130.85 -0.132509 132.416 0.0381588H145.771C147.336 -0.129175 148.908 0.276116 150.199 1.17933C151.08 2.37824 151.48 3.86511 151.319 5.34551V6.57725H146.114V4.04131Z" fill="white"/>
<path d="M156.867 22.4811V0.0380859H161.078L171.614 13.6053L181.934 0.0380859H186.108V22.4811H181.283V8.60593C181.283 8.20742 181.283 7.86326 181.283 7.60966C181.283 7.35607 181.373 6.79454 181.41 6.2149C181.265 6.48661 181.139 6.75831 181.012 7.01191C180.914 7.2316 180.799 7.44353 180.669 7.64589C180.506 7.96796 180.319 8.27684 180.108 8.5697L171.813 19.7822H170.765L162.361 8.51536C162.068 8.13424 161.808 7.72816 161.584 7.30173C161.352 6.96488 161.164 6.59964 161.024 6.2149C161.024 6.68586 161.024 7.12059 161.151 7.5191V22.4811H156.867Z" fill="white"/>
<path d="M193.699 22.4811V0.0380859H219V22.4811H213.795V4.25861H198.922V22.4811H193.699Z" fill="white"/>
</svg>
