<svg width="185" height="12" viewBox="0 0 185 12" fill="none" xmlns="http://www.w3.org/2000/svg">
<path d="M117.916 4.64808C117.916 4.96808 117.829 5.28808 117.656 5.60808C117.483 5.92808 117.311 6.24808 116.965 6.40808C117.829 6.80808 118.261 7.52809 118.261 8.48809C118.261 9.44809 118.002 10.2481 117.311 10.8081C116.705 11.4481 115.927 11.6881 114.804 11.6881H109.79V1.52808H114.458C115.409 1.52808 116.273 1.84808 116.878 2.40808C117.57 2.96808 117.916 3.76808 117.916 4.64808ZM114.285 3.84808H112.469V5.52808H114.285C114.631 5.52808 114.89 5.36808 115.063 5.12808C115.236 4.88808 115.149 4.56808 115.063 4.32808C114.89 3.92808 114.631 3.84808 114.285 3.84808ZM114.804 7.68809H112.469V9.44809H114.717C115.063 9.44809 115.322 9.28809 115.495 9.04809C115.668 8.80809 115.582 8.40809 115.495 8.16809C115.322 7.76809 115.149 7.68809 114.804 7.68809Z" fill="white"/>
<path d="M134.341 8.08817L136.502 11.2882V11.6082H133.303L131.402 8.56818H129.932V11.6082H127.079V1.52808H131.92C132.612 1.52808 133.217 1.60808 133.822 1.84808C134.427 2.08808 134.773 2.48809 135.119 2.80809C135.378 3.1281 135.724 3.68811 135.81 4.08811C135.897 4.64812 135.983 5.04813 135.897 5.52814C135.81 6.08814 135.637 6.48815 135.465 6.88815C135.119 7.44816 134.773 7.84817 134.341 8.08817ZM131.92 6.40815C132.18 6.40815 132.525 6.32815 132.698 6.16814C132.871 6.00814 132.958 5.84814 133.044 5.52814C133.13 5.28813 133.13 4.96813 133.044 4.72812C133.044 4.48812 132.871 4.32812 132.698 4.08811C132.525 3.92811 132.266 3.84811 131.92 3.84811C131.747 3.84811 131.574 3.84811 131.229 3.84811C130.969 3.84811 130.796 3.84811 130.451 3.84811C130.105 3.84811 130.018 3.84811 129.759 3.84811V6.32815H131.92V6.40815Z" fill="white"/>
<path d="M147.222 4.64808C147.222 4.96808 147.135 5.28808 146.962 5.60808C146.789 5.92808 146.617 6.24808 146.271 6.40808C147.135 6.80808 147.567 7.52809 147.567 8.48809C147.567 9.44809 147.308 10.2481 146.617 10.8081C146.011 11.4481 145.233 11.6881 144.11 11.6881H138.923V1.52808H143.591C144.542 1.52808 145.406 1.84808 146.011 2.40808C146.962 2.96808 147.222 3.76808 147.222 4.64808ZM143.591 3.84808H141.775V5.52808H143.591C143.937 5.52808 144.196 5.36808 144.369 5.12808C144.542 4.88808 144.455 4.56808 144.369 4.32808C144.282 3.92808 143.937 3.84808 143.591 3.84808ZM144.023 7.68809H141.775V9.44809H144.023C144.369 9.44809 144.628 9.28809 144.801 9.04809C144.974 8.80809 144.888 8.40809 144.801 8.16809C144.715 7.76809 144.455 7.68809 144.023 7.68809Z" fill="white"/>
<path d="M157.595 11.6882L156.903 10.4081H152.581L151.889 11.6882H149.209V11.3681L154.137 1.36743H155.347L160.361 11.3681V11.6882H157.595ZM155.952 8.16791L154.742 5.44772L153.532 8.16791H155.952Z" fill="white"/>
<path d="M170.909 11.7688L165.376 6.72877V11.7688H162.437V1.44873H163.474L169.007 6.48877V1.44873H171.946V11.7688H170.909Z" fill="white"/>
<path d="M178.861 1.52808C179.985 1.52808 181.023 1.76805 181.887 2.32799C182.752 2.88793 183.27 3.44787 183.703 4.24779C184.048 5.0477 184.308 5.84762 184.308 6.64753C184.308 7.52744 184.135 8.32736 183.703 9.04728C183.357 9.8472 182.665 10.4071 181.887 10.9671C181.023 11.527 179.985 11.767 178.861 11.767H174.712V1.52808H178.861ZM177.478 3.84783V9.36725H178.775C179.207 9.36725 179.726 9.28726 180.072 9.12727C180.418 8.96729 180.763 8.72732 180.936 8.32736C181.109 8.00739 181.282 7.60743 181.368 7.28747C181.455 6.9675 181.455 6.48755 181.368 6.16759C181.282 5.84762 181.109 5.36767 180.936 5.1277C180.763 4.80773 180.504 4.48776 180.072 4.32778C179.726 4.1678 179.207 4.0878 178.775 4.0878H177.478V3.84783Z" fill="white"/>
<path d="M28.9601 8.24749C28.7007 7.60749 28.5278 6.88748 28.5278 6.16747C28.5278 5.44747 28.7007 4.72746 28.9601 4.08746C29.2194 3.44745 29.6517 2.96745 30.1704 2.56744C30.689 2.16744 31.2077 1.84744 31.8129 1.68743C32.418 1.52743 33.1096 1.36743 33.7147 1.36743C34.8386 1.36743 35.8759 1.68743 36.7404 2.24744C37.6049 2.88745 38.1236 3.76745 38.2965 4.88746H35.7031C35.5302 4.00746 34.7521 3.60745 33.6283 3.60745C32.9367 3.60745 32.2451 3.84745 31.8129 4.32746C31.3806 4.80746 31.1213 5.44747 31.1213 6.16747C31.1213 6.88748 31.3806 7.44749 31.8129 7.92749C32.2451 8.4075 32.8503 8.7275 33.6283 8.7275C34.2334 8.7275 34.6657 8.5675 35.0979 8.32749C35.5302 8.08749 35.7031 7.68749 35.7895 7.20748H38.2965C38.2965 8.08749 37.9507 8.7275 37.432 9.3675C36.9133 9.92751 36.3082 10.3275 35.7031 10.5675C35.0115 10.8075 34.3199 10.8875 33.5418 10.8875C32.8503 10.8875 32.2451 10.8075 31.64 10.5675C31.0348 10.3275 30.5161 10.0875 29.9975 9.68751C29.6517 9.2875 29.3059 8.8075 28.9601 8.24749Z" fill="white"/>
<path d="M41.4954 10.7288V11.7688H39.3342V8.72879H40.3716L43.7431 1.44873H44.8669L48.4113 8.72879H49.5351V11.7688H47.3739V10.7288H41.4954ZM44.4347 5.36876L43.0515 8.64879H45.8179L44.4347 5.36876Z" fill="white"/>
<path d="M57.1427 1.60791V3.76786H53.5119V5.12782H56.8834V7.28777H53.5119V8.96773H57.3156V11.1277H50.9185V1.60791H57.1427Z" fill="white"/>
<path d="M63.5396 5.52819L60.9462 10.9686H58.5256V10.6486L63.021 1.60791H64.0583L68.5537 10.6486V10.9686H66.1331L63.5396 5.52819Z" fill="white"/>
<path d="M77.2852 10.9686L76.68 9.76849H72.7899L72.1847 10.9686H69.7642V10.6486L74.2595 1.60791H75.3833L79.7922 10.6486V10.9686H77.2852ZM75.902 7.84836L74.6917 5.44818L73.5679 7.84836H75.902Z" fill="white"/>
<path d="M89.3881 1.60791V10.9686H86.7947V7.20831H83.769V10.9686H81.1755V1.60791H83.769V5.04816H86.7947V1.60791H89.3881Z" fill="white"/>
<path d="M100.539 4.16772C100.799 4.80778 100.972 5.52785 100.972 6.32793C100.972 7.12802 100.799 7.76808 100.539 8.40815C100.28 9.04821 99.8479 9.52826 99.3292 9.9283C98.8105 10.3283 98.2918 10.6484 97.6867 10.8084C97.0815 11.0484 96.3899 11.1284 95.7848 11.1284C95.1797 11.1284 94.4881 11.0484 93.8829 10.8084C93.2778 10.5684 92.6727 10.3283 92.2404 9.9283C91.7217 9.52826 91.3759 9.04821 91.0301 8.40815C90.7708 7.76808 90.5979 7.04801 90.5979 6.24793C90.5979 5.44785 90.7708 4.72777 91.0301 4.08771C91.2895 3.44764 91.7217 2.96759 92.2404 2.56755C92.7591 2.16751 93.2778 1.84748 93.8829 1.68746C94.4881 1.44744 95.1797 1.36743 95.7848 1.36743C96.4764 1.36743 97.0815 1.44744 97.6867 1.68746C98.2918 1.92749 98.8969 2.16751 99.3292 2.56755C99.8479 3.0476 100.28 3.52765 100.539 4.16772ZM93.3642 6.16792C93.3642 6.72798 93.4507 7.20802 93.71 7.60807C93.9694 8.00811 94.3152 8.32814 94.661 8.48815C95.0068 8.64817 95.439 8.72818 95.8712 8.72818C96.3035 8.72818 96.7357 8.64817 97.0815 8.48815C97.4273 8.32814 97.7731 8.00811 98.0325 7.60807C98.2918 7.20802 98.3783 6.72798 98.3783 6.16792C98.3783 5.60786 98.2054 5.20782 97.946 4.80778C97.6867 4.40774 97.3409 4.08771 96.9951 3.92769C96.6493 3.76768 96.217 3.68767 95.8712 3.68767C95.5255 3.68767 95.0068 3.76768 94.661 3.92769C94.3152 4.08771 93.9694 4.40774 93.71 4.80778C93.4507 5.28783 93.3642 5.76788 93.3642 6.16792Z" fill="white"/>
<g clip-path="url(#clip0_297_3616)">
<path d="M10.0816 5.26715L0 0V11.9204L10.0816 6.37603V5.26715Z" fill="white"/>
<path d="M10.0816 5.26715L19.8831 0V11.9204L9.80151 6.37603L10.0816 5.26715Z" fill="white"/>
</g>
<defs>
<clipPath id="clip0_297_3616">
<rect width="19.8831" height="11.9204" fill="white"/>
</clipPath>
</defs>
</svg>
